<?xml version="1.0" standalone="no"?>
<!DOCTYPE svg PUBLIC "-//W3C//DTD SVG 20010904//EN"
 "http://www.w3.org/TR/2001/REC-SVG-20010904/DTD/svg10.dtd">
<svg version="1.0" xmlns="http://www.w3.org/2000/svg"
 width="512.000000pt" height="512.000000pt" viewBox="0 0 512.000000 512.000000"
 preserveAspectRatio="xMidYMid meet">

<g transform="translate(0.000000,512.000000) scale(0.100000,-0.100000)"
fill="#000000" stroke="none">
<path d="M1360 3090 c0 -733 4 -1154 11 -1217 28 -254 114 -453 266 -614 175
-185 407 -299 687 -338 100 -14 352 -14 452 0 448 62 787 320 919 698 62 177
58 96 62 1399 l4 1192 -275 0 -275 0 -4 -1177 c-3 -1309 2 -1210 -71 -1358
-48 -98 -128 -175 -230 -225 -101 -49 -204 -70 -345 -70 -256 0 -437 79 -544
237 -62 91 -94 193 -107 334 -6 68 -10 550 -10 1187 l0 1072 -270 0 -270 0 0
-1120z"/>
</g>
</svg>
